HIERARCHY
ROOT Hips
{
  OFFSET -125.086 92.215 135.881
  CHANNELS 6 Xposition Yposition Zposition Zrotation Xrotation Yrotation
  JOINT LeftUpLeg
  {
    OFFSET 8.64259 1.95398 -2.38835
    CHANNELS 3 Zrotation Xrotation Yrotation
    JOINT LeftLeg
    {
      OFFSET 43.7702 0 0
      CHANNELS 3 Zrotation Xrotation Yrotation
      JOINT LeftFoot
      {
        OFFSET 40.6238 0 0
        CHANNELS 3 Zrotation Xrotation Yrotation
        JOINT LeftToeBase
        {
          OFFSET 12.7242 0 0
          CHANNELS 3 Zrotation Xrotation Yrotation
          End Site
          {
            OFFSET 0 0 0
          }
        }
      }
    }
  }
  JOINT RightUpLeg
  {
    OFFSET -8.2249 1.95398 -2.59336
    CHANNELS 3 Zrotation Xrotation Yrotation
    JOINT RightLeg
    {
      OFFSET 43.5653 0 0
      CHANNELS 3 Zrotation Xrotation Yrotation
      JOINT RightFoot
      {
        OFFSET 40.6238 0 0
        CHANNELS 3 Zrotation Xrotation Yrotation
        JOINT RightToeBase
        {
          OFFSET 12.7242 0 0
          CHANNELS 3 Zrotation Xrotation Yrotation
          End Site
          {
            OFFSET 0 0 0
          }
        }
      }
    }
  }
  JOINT Spine
  {
    OFFSET 0.165834 0.87714 6.61349
    CHANNELS 3 Zrotation Xrotation Yrotation
    JOINT Spine1
    {
      OFFSET 7.38963 1.71661e-005 0
      CHANNELS 3 Zrotation Xrotation Yrotation
      JOINT Spine2
      {
        OFFSET 11.9445 1.14441e-005 0
        CHANNELS 3 Zrotation Xrotation Yrotation
        JOINT Spine3
        {
          OFFSET 14.7254 4.19617e-005 0
          CHANNELS 3 Zrotation Xrotation Yrotation
          JOINT Spine4
          {
            OFFSET 10.9679 0 0
            CHANNELS 3 Zrotation Xrotation Yrotation
            JOINT RightShoulder
            {
              OFFSET 2.46616 -1.6653 3.69651
              CHANNELS 3 Zrotation Xrotation Yrotation
              JOINT RightArm
              {
                OFFSET 13.0012 0 0
                CHANNELS 3 Zrotation Xrotation Yrotation
                JOINT RightForeArm
                {
                  OFFSET 28.7848 1.52588e-005 0
                  CHANNELS 3 Zrotation Xrotation Yrotation
                  JOINT RightHand
                  {
                    OFFSET 26.5688 1.52588e-005 0
                    CHANNELS 3 Zrotation Xrotation Yrotation
                    End Site
                    {
                      OFFSET 0 0 0
                    }
                  }
                }
              }
            }
            JOINT LeftShoulder
            {
              OFFSET 2.38034 -1.29275 -3.7523
              CHANNELS 3 Zrotation Xrotation Yrotation
              JOINT LeftArm
              {
                OFFSET 16.3182 6.10352e-005 0
                CHANNELS 3 Zrotation Xrotation Yrotation
                JOINT LeftForeArm
                {
                  OFFSET 27.0901 0 0
                  CHANNELS 3 Zrotation Xrotation Yrotation
                  JOINT LeftHand
                  {
                    OFFSET 24.5451 1.52588e-005 0
                    CHANNELS 3 Zrotation Xrotation Yrotation
                    End Site
                    {
                      OFFSET 0 0 0
                    }
                  }
                }
              }
            }
            JOINT Neck
            {
              OFFSET 5.0226 -0.0266342 0
              CHANNELS 3 Zrotation Xrotation Yrotation
              JOINT Head
              {
                OFFSET 6.69363 2.86102e-005 0
                CHANNELS 3 Zrotation Xrotation Yrotation
                End Site
                {
                  OFFSET 0 0 0
                }
              }
            }
          }
        }
      }
    }
  }
}
MOTION
Frames:	15
Frame Time:	0.0416667
-141.329 97.073 20.4952 142.939 -86.1068 143.416 -174.437 -1.40854 90.4613 -10.8178 17.1405 3.10855 57.3769 3.40384 10.7447 41.8793 -1.11789 1.69535 176.241 3.49085 89.5636 -18.5999 -2.93267 -1.1348 59.84 1.94041 18.5482 33.5205 -0.703911 -0.711778 -0.269625 7.10721 -90.1199 12.6591 -0.592732 -0.169875 0.988282 -0.599631 -0.143628 -21.5477 -0.514272 -0.340157 -1.53502 -0.514275 -0.340169 110.825 -53.2585 -69.2158 32.1459 4.02066 -13.4742 -0.183853 -32.0482 -7.9592 -11.0204 -0.661362 1.86575 -73.0446 -48.1744 104.322 -41.3918 -9.95204 -22.9693 5.30813 59.4355 0.0125797 -3.26009 -0.0417518 -10.6596 -2.61127 1.23363 -4.55381 -16.2439 1.20372 5.10185 
-141.365 97.1421 20.5368 145.28 -86.3409 145.778 -173.834 -1.63411 90.7596 -10.0867 17.7213 2.63476 57.106 3.23063 11.0537 41.5174 -1.0916 1.43167 176.335 3.35624 89.641 -18.1205 -3.22632 -1.20343 59.611 1.92033 18.5517 33.6401 -0.698494 -1.08712 -0.219191 7.11234 -90.0898 12.6491 -0.478192 -0.123244 0.978198 -0.48315 -0.10208 -21.5575 -0.419043 -0.261263 -1.54483 -0.419045 -0.261268 111.4 -53.6611 -68.4271 32.0329 3.92019 -13.6611 -0.224814 -32.2054 -8.14303 -11.1366 -0.692092 2.10283 -73.7046 -47.237 103.369 -42.0767 -9.72007 -22.8442 5.43209 58.9198 0.0123914 -3.63472 -0.022284 -10.5691 -2.07464 0.946474 -6.73114 -16.6739 0.94707 7.16054 
-141.421 97.0619 20.5871 154.282 -86.363 155.052 -173.934 -1.38542 90.9038 -11.4009 16.5638 2.9165 57.9724 3.61483 10.5756 41.5516 -1.09528 1.78486 176.364 3.30856 89.8971 -18.5844 -3.97706 -1.11065 59.752 1.76906 17.9713 34.2065 -0.791027 -1.08538 -0.170874 7.1389 -90.1675 12.5955 -0.419254 -0.285688 0.924591 -0.431422 -0.26697 -21.6107 -0.314014 -0.398484 -1.598 -0.314011 -0.398488 110.842 -53.1265 -69.1696 32.2133 3.91264 -13.6188 -0.255484 -32.0912 -7.97829 -10.0151 -0.545083 1.21104 -72.9635 -48.4511 104.424 -41.0737 -9.73085 -23.2768 5.0336 59.5122 0.0126084 -3.75834 -0.0170886 -10.4473 -1.33267 0.831234 -8.07811 -17.9615 0.658624 9.64612 
-141.428 97.0676 20.5778 153.452 -86.2906 154.361 -173.879 -1.39183 91.0316 -11.4308 16.8554 2.98657 57.9081 3.61364 10.784 41.6988 -1.10563 1.85625 176.325 3.26967 90.0262 -18.543 -3.9576 -0.983687 59.4724 1.77935 17.5334 34.7121 -0.912345 -0.288488 -0.167481 7.15546 -90.1995 12.5622 -0.427734 -0.348794 0.891306 -0.44267 -0.329644 -21.6438 -0.303127 -0.461221 -1.63115 -0.303136 -0.461231 110.888 -52.9925 -69.0795 32.1903 3.80971 -13.763 -0.202924 -31.9072 -7.97138 -10.1196 -0.551723 1.21223 -72.8337 -48.7323 104.599 -41.0068 -9.51596 -23.1704 4.96578 58.2018 0.01214 -2.85107 -0.065372 -10.3554 -0.82371 0.85328 -7.69788 -18.5389 0.655606 9.33118 
-141.446 97.0814 20.5962 153.302 -86.2407 154.205 -173.796 -1.46439 91.0892 -11.3544 16.8823 2.93588 57.8913 3.62244 10.6954 41.6664 -1.10274 1.59266 176.326 3.1961 90.0448 -18.535 -3.92456 -0.985072 59.6055 1.72166 17.3752 34.2527 -0.846595 -0.145566 -0.17182 7.16894 -90.1897 12.5352 -0.431657 -0.328836 0.864331 -0.445709 -0.30953 -21.6708 -0.312872 -0.443368 -1.65818 -0.312866 -0.443361 110.923 -53.096 -69.0432 32.3221 3.91731 -13.7637 -0.347371 -32.0863 -8.07468 -10.1605 -0.542395 1.07385 -73.1298 -48.3573 104.175 -41.3824 -9.67743 -23.0609 5.16692 59.1454 0.012473 -3.38355 -0.0367467 -10.4593 -0.816161 0.732923 -7.89835 -18.3234 0.557371 9.51244 
-141.453 97.0674 20.5861 152.819 -86.2058 153.728 -173.837 -1.38441 91.0805 -11.5518 16.7135 2.97674 58.0922 3.70121 10.5011 41.2866 -1.07634 1.70205 176.431 3.01999 90.069 -18.2687 -3.82668 -1.11176 59.7162 1.73611 17.9902 34.1451 -0.777056 -1.19086 -0.175433 7.17712 -90.1902 12.5189 -0.439152 -0.329181 0.847956 -0.453204 -0.309536 -21.6872 -0.320585 -0.445925 -1.67458 -0.320587 -0.445927 110.897 -53.0236 -69.0702 32.4656 3.87245 -13.7114 -0.382139 -32.0073 -8.15777 -10.2466 -0.542735 1.02253 -73.1642 -48.2068 104.134 -41.3912 -9.42435 -23.1369 4.98933 58.9986 0.0124197 -3.07489 -0.0520036 -10.6457 -1.55956 0.494145 -8.91695 -17.0701 0.301854 11.215 
-141.477 97.0759 20.6089 151.54 -86.2135 152.4 -173.901 -1.41913 91.0233 -11.3922 16.9266 3.00626 57.7994 3.55354 10.7009 41.8213 -1.1139 1.71887 176.325 3.20681 90.0317 -18.4924 -3.85969 -0.988819 59.4704 1.75825 17.4012 34.4889 -0.886987 -0.0776285 -0.176588 7.18335 -90.1958 12.5097 -0.442514 -0.339802 0.838786 -0.457257 -0.319929 -21.6964 -0.32332 -0.45754 -1.68375 -0.32332 -0.457536 110.871 -52.9213 -69.0941 32.4364 3.76864 -13.7891 -0.259018 -31.7635 -8.0954 -10.3785 -0.556563 1.1013 -73.0871 -48.3356 104.242 -41.5765 -9.53931 -23.1905 5.17529 59.0905 0.012453 -3.19758 -0.0441341 -10.7616 -1.50007 0.538366 -9.02715 -17.0023 0.348543 11.413 
-141.495 97.0748 20.6351 150.849 -86.2142 151.658 -173.897 -1.42177 91.0043 -11.3904 16.8994 2.98147 57.9237 3.6314 10.5959 41.579 -1.09766 1.9113 176.258 3.22011 89.9509 -18.5263 -3.9096 -0.951868 59.4882 1.79107 17.4621 34.7247 -0.914976 -0.270905 -0.175507 7.18207 -90.1922 12.5103 -0.439345 -0.333009 0.839401 -0.453644 -0.313315 -21.6958 -0.319677 -0.449896 -1.68313 -0.319668 -0.449894 111.011 -53.0946 -68.9119 32.1443 3.65707 -13.8065 -0.153829 -31.6002 -8.08491 -10.3338 -0.552717 1.08466 -73.1736 -48.2679 104.114 -41.33 -9.13366 -23.3751 4.83939 58.8277 0.0123585 -3.06355 -0.0518719 -10.7531 -1.22202 0.528186 -9.26003 -17.496 0.31158 11.6379 
-141.496 97.0623 20.6595 149.441 -86.1948 150.219 -174.027 -1.35803 90.9249 -11.4565 16.8014 3.05651 57.8722 3.59105 10.6213 41.8642 -1.11671 1.54001 176.226 3.15381 89.9141 -18.3853 -3.89692 -0.933768 59.5824 1.73852 17.4725 34.7461 -0.916417 -0.313983 -0.184351 7.18162 -90.1804 12.51 -0.452105 -0.308064 0.839074 -0.465221 -0.287877 -21.6962 -0.338621 -0.429697 -1.68353 -0.338615 -0.429701 111.052 -53.1669 -68.8633 32.2236 3.73967 -13.8134 -0.18312 -31.4915 -8.05315 -10.2389 -0.537689 0.967663 -73.3193 -47.9976 103.911 -41.3994 -8.77316 -23.3124 4.71668 57.453 0.0118904 -2.4463 -0.0864444 -10.7024 -0.306223 0.734817 -8.08777 -18.9777 0.551734 9.60943 
-141.487 97.0626 20.693 149.394 -86.195 150.122 -174.016 -1.50611 90.886 -11.2165 16.9219 3.02651 57.7402 3.5468 10.7077 41.8415 -1.11515 1.57323 176.174 3.25483 89.8373 -18.6127 -3.82313 -0.914965 59.5794 1.81052 17.6682 34.5749 -0.885161 -0.402339 -0.181684 7.18645 -90.1834 12.4926 -0.447072 -0.317233 0.821646 -0.46059 -0.297279 -21.7136 -0.33291 -0.43682 -1.70094 -0.3329 -0.436815 111.104 -53.1013 -68.7742 32.4495 4.04259 -13.8653 -0.537561 -32.1254 -8.24875 -10.0706 -0.544176 1.1536 -73.2801 -48.1737 103.957 -41.4488 -8.98436 -23.4635 4.91647 58.3733 0.0121989 -2.51561 -0.0824582 -10.7792 -0.366259 0.768563 -8.03504 -18.6527 0.590516 9.69425 
-141.499 97.0522 20.7314 149.48 -86.1998 150.178 -174.037 -1.55258 90.8638 -11.2076 16.6944 3.02946 58.0037 3.71049 10.4549 41.4718 -1.0896 1.7493 176.202 3.22987 89.8359 -18.6523 -3.90364 -0.958446 59.8252 1.72815 17.5845 34.3271 -0.837437 -0.573842 -0.185418 7.19 -90.1806 12.4899 -0.451482 -0.315385 0.819003 -0.464852 -0.295661 -21.7162 -0.340626 -0.435125 -1.70359 -0.340628 -0.435124 110.999 -53.0014 -68.915 32.6176 4.1447 -13.8069 -0.617616 -32.0476 -8.28376 -10.0696 -0.535853 1.05406 -73.2216 -48.2047 104.045 -41.3379 -8.9206 -23.4645 4.81994 58.0724 0.0120959 -2.52645 -0.0817845 -10.9497 -0.486667 0.710638 -7.97613 -18.4722 0.527771 9.7266 
-141.484 97.057 20.7598 149.242 -86.2997 149.956 -174.084 -1.51451 90.8357 -11.1394 16.7271 3.05905 57.8759 3.67179 10.5832 41.6954 -1.10516 1.72498 176.094 3.32491 89.7854 -18.6557 -3.9393 -0.841121 59.7945 1.70631 17.498 34.2471 -0.844744 -0.169426 -0.184737 7.1898 -90.1822 12.4953 -0.453823 -0.311394 0.824362 -0.467081 -0.2912 -21.7109 -0.339135 -0.433286 -1.69824 -0.339134 -0.433285 111.142 -53.1374 -68.7243 32.3678 3.87057 -13.9041 -0.397971 -31.8547 -8.24874 -10.1976 -0.547683 1.11252 -73.1607 -48.2395 104.137 -41.2312 -8.91917 -23.4994 4.75096 58.3255 0.0121824 -2.81266 -0.0650363 -10.9987 -0.1942 0.766715 -7.81297 -18.8775 0.599418 9.32788 
-141.485 97.0599 20.7706 145.62 -86.1851 146.377 -174.18 -1.33654 90.839 -11.3877 16.9066 3.16568 57.7643 3.59176 10.6645 42.1051 -1.13362 1.75108 176.091 3.16513 89.8572 -18.3155 -3.97414 -0.791246 59.6427 1.65401 16.9076 34.6484 -0.931708 0.358456 -0.214821 7.18826 -90.1855 12.4853 -0.515069 -0.3114 0.814371 -0.528273 -0.28844 -21.721 -0.397671 -0.451809 -1.70837 -0.397666 -0.451812 111.179 -53.2305 -68.6841 32.1979 3.56015 -13.8941 -0.178496 -31.6306 -8.22302 -10.6531 -0.561341 0.98547 -73.1996 -48.0498 104.093 -41.5423 -9.06637 -23.5327 4.95104 58.8317 0.0123599 -3.0213 -0.0532928 -10.9389 -0.24456 0.67396 -8.20397 -18.7273 0.517784 9.72342 
-141.493 97.0639 20.7637 142.496 -86.0803 143.247 -174.28 -1.23215 90.806 -11.5215 16.9117 3.24524 57.9938 3.76063 10.4215 41.5516 -1.09604 2.04232 176.093 3.10474 89.8393 -18.2345 -3.66558 -0.806267 59.8486 1.68293 17.5368 34.2266 -0.810481 -0.782287 -0.240205 7.18697 -90.2055 12.4978 -0.575036 -0.344206 0.826981 -0.589626 -0.318576 -21.7085 -0.445006 -0.501118 -1.69584 -0.445006 -0.501122 110.974 -52.9118 -68.9383 32.3063 3.43122 -13.8417 -0.00888487 -31.316 -8.08351 -10.7837 -0.549291 0.771764 -73.1186 -48.2666 104.199 -41.3403 -8.97908 -23.4241 4.74853 58.704 0.0123145 -3.13741 -0.0470303 -10.8857 -1.39665 0.458703 -9.47907 -16.9594 0.248309 12.1736 
-141.478 97.0227 20.7524 139.179 -85.9629 139.913 -174.429 -0.953534 90.7242 -11.9409 16.9348 3.34013 58.0169 3.7719 10.4967 41.9601 -1.12338 1.90087 175.961 3.26552 89.7893 -18.4071 -3.68284 -0.652378 59.7424 1.67033 16.9879 34.7717 -0.946382 0.228787 -0.258005 7.18886 -90.2081 12.4913 -0.61165 -0.345343 0.820436 -0.62626 -0.318091 -21.7151 -0.479581 -0.513198 -1.70248 -0.47959 -0.513209 111.042 -52.822 -68.8221 32.4679 3.53055 -13.9317 -0.0834955 -31.5836 -8.0648 -11.0042 -0.586363 1.05318 -73.1685 -48.361 104.114 -41.26 -8.97301 -23.4515 4.6844 58.4088 0.0122112 -3.15916 -0.0475127 -10.6326 -0.986557 0.433633 -9.53768 -17.612 0.202681 12.1193 
